<svg width="1399" height="499" viewBox="0 0 1399 499" fill="none" xmlns="http://www.w3.org/2000/svg">
<path d="M121.415 189.702C121.415 189.702 133.7 207.075 166.354 220.633C170.501 222.701 214.102 245.962 197.232 285.626C193.058 269.579 181.367 230.858 146.426 227.5C146.426 227.5 184.852 237.559 191.865 286.396C191.865 286.396 158.93 286.677 136.998 253.777C111.939 216.187 121.415 189.702 121.415 189.702Z" fill="#0B2349"/>
<path d="M139.871 303.602C139.871 303.602 150.27 313.642 173.78 318.559C176.81 319.414 208.855 329.421 202.615 358.03C197.798 347.847 185.094 323.483 161.349 325.664C161.349 325.664 188.268 327.515 199.13 359.223C199.13 359.223 177.183 363.579 158.381 344.396C136.899 322.478 139.871 303.602 139.871 303.602Z" fill="#0B2349"/>
<path d="M334.268 215.779C334.268 215.779 315.227 235.503 270.807 246.421C265.1 248.248 204.809 269.389 218.903 323.133C227.296 303.523 249.627 256.52 295.042 259.025C295.042 259.025 243.889 264.371 225.634 325.154C225.634 325.154 267.789 331.9 302.139 294.29C341.386 251.319 334.268 215.779 334.268 215.779Z" fill="#0B2349"/>
<path d="M323.488 26.6307C323.488 26.6307 307.3 63.4744 251.925 100.961C245.025 106.363 179.554 158.433 208.993 235.035C199.353 273.3 226.345 142.218 279.25 124.125C279.25 124.125 141.24 293.412 229.273 387.602C229.273 387.602 161.134 300.812 278.875 207.96C345.465 155.445 323.488 26.6307 323.488 26.6307Z" fill="#0B2349"/>
<path fill-rule="evenodd" clip-rule="evenodd" d="M243.155 85.6026C161.719 82.8913 87.0486 139.635 68.6143 223.536C47.8736 317.934 106.175 410.963 198.835 431.322C291.494 451.68 383.423 391.66 404.164 297.261C419.538 227.285 391.479 158.062 338.188 118.634L337.514 149.359C374.369 184.272 392.665 237.76 380.723 292.111C362.736 373.976 283.289 425.305 203.985 407.881C124.68 390.456 74.0682 310.551 92.0552 228.686C106.166 164.465 158.1 119.035 218.116 110.849L243.155 85.6026Z" fill="#0B2349"/>
<rect x="484.035" y="126" width="10" height="246" fill="#0B2349"/>
<path d="M608.045 295.707C613.377 295.707 617.801 294.154 621.316 291.049C624.832 287.943 626.707 284.105 626.941 279.535H647.068C646.834 285.453 644.988 290.99 641.531 296.146C638.074 301.244 633.387 305.287 627.469 308.275C621.551 311.264 615.164 312.758 608.309 312.758C595.008 312.758 584.461 308.451 576.668 299.838C568.875 291.225 564.979 279.33 564.979 264.154V261.957C564.979 247.484 568.846 235.912 576.58 227.24C584.314 218.51 594.861 214.145 608.221 214.145C619.529 214.145 628.729 217.455 635.818 224.076C642.967 230.639 646.717 239.281 647.068 250.004H626.941C626.707 244.555 624.832 240.072 621.316 236.557C617.859 233.041 613.436 231.283 608.045 231.283C601.131 231.283 595.799 233.803 592.049 238.842C588.299 243.822 586.395 251.41 586.336 261.605V265.033C586.336 275.346 588.182 283.051 591.873 288.148C595.623 293.188 601.014 295.707 608.045 295.707ZM651.097 262.572C651.097 253.256 652.943 244.877 656.634 237.436C660.326 229.936 665.511 224.193 672.191 220.209C678.871 216.166 686.546 214.145 695.218 214.145C708.05 214.145 718.451 218.275 726.42 226.537C734.447 234.799 738.783 245.756 739.427 259.408L739.515 264.418C739.515 273.793 737.699 282.172 734.066 289.555C730.492 296.938 725.336 302.65 718.597 306.693C711.918 310.736 704.183 312.758 695.394 312.758C681.976 312.758 671.224 308.305 663.138 299.398C655.111 290.434 651.097 278.51 651.097 263.627V262.572ZM672.455 264.418C672.455 274.203 674.476 281.879 678.519 287.445C682.562 292.953 688.187 295.707 695.394 295.707C702.601 295.707 708.197 292.895 712.181 287.27C716.224 281.645 718.246 273.412 718.246 262.572C718.246 252.963 716.166 245.346 712.005 239.721C707.904 234.096 702.308 231.283 695.218 231.283C688.246 231.283 682.709 234.066 678.607 239.633C674.505 245.141 672.455 253.402 672.455 264.418ZM769.56 215.902L770.175 225.834C776.855 218.041 785.995 214.145 797.597 214.145C810.312 214.145 819.013 219.008 823.7 228.734C830.614 219.008 840.341 214.145 852.88 214.145C863.368 214.145 871.161 217.045 876.259 222.846C881.415 228.646 884.052 237.201 884.169 248.51V311H862.812V249.125C862.812 243.09 861.493 238.666 858.857 235.854C856.22 233.041 851.855 231.635 845.761 231.635C840.898 231.635 836.913 232.953 833.808 235.59C830.761 238.168 828.622 241.566 827.392 245.785L827.48 311H806.122V248.422C805.829 237.23 800.116 231.635 788.984 231.635C780.429 231.635 774.364 235.121 770.79 242.094V311H749.433V215.902H769.56ZM981.274 264.418C981.274 279.125 977.934 290.873 971.255 299.662C964.575 308.393 955.61 312.758 944.36 312.758C933.93 312.758 925.581 309.33 919.311 302.475V347.562H897.954V215.902H917.641L918.52 225.57C924.79 217.953 933.315 214.145 944.096 214.145C955.698 214.145 964.78 218.48 971.343 227.152C977.964 235.766 981.274 247.748 981.274 263.1V264.418ZM960.005 262.572C960.005 253.08 958.1 245.551 954.292 239.984C950.542 234.418 945.151 231.635 938.12 231.635C929.389 231.635 923.12 235.238 919.311 242.445V284.633C923.179 292.016 929.507 295.707 938.296 295.707C945.093 295.707 950.395 292.982 954.204 287.533C958.071 282.025 960.005 273.705 960.005 262.572ZM1048.14 311C1047.21 309.184 1046.39 306.225 1045.68 302.123C1038.89 309.213 1030.57 312.758 1020.72 312.758C1011.17 312.758 1003.38 310.033 997.344 304.584C991.309 299.135 988.291 292.396 988.291 284.369C988.291 274.232 992.041 266.469 999.541 261.078C1007.1 255.629 1017.88 252.904 1031.89 252.904H1044.98V246.664C1044.98 241.742 1043.6 237.816 1040.85 234.887C1038.1 231.898 1033.91 230.404 1028.28 230.404C1023.42 230.404 1019.43 231.635 1016.33 234.096C1013.22 236.498 1011.67 239.574 1011.67 243.324H990.313C990.313 238.109 992.041 233.246 995.498 228.734C998.955 224.164 1003.64 220.59 1009.56 218.012C1015.54 215.434 1022.19 214.145 1029.51 214.145C1040.64 214.145 1049.52 216.957 1056.14 222.582C1062.76 228.148 1066.16 236 1066.34 246.137V289.027C1066.34 297.582 1067.54 304.408 1069.94 309.506V311H1048.14ZM1024.68 295.619C1028.9 295.619 1032.85 294.594 1036.54 292.543C1040.29 290.492 1043.11 287.738 1044.98 284.281V266.352H1033.47C1025.56 266.352 1019.61 267.729 1015.63 270.482C1011.64 273.236 1009.65 277.133 1009.65 282.172C1009.65 286.273 1011 289.555 1013.69 292.016C1016.45 294.418 1020.11 295.619 1024.68 295.619ZM1130.4 235.414C1127.58 234.945 1124.68 234.711 1121.7 234.711C1111.91 234.711 1105.32 238.461 1101.92 245.961V311H1080.56V215.902H1100.95L1101.48 226.537C1106.64 218.275 1113.79 214.145 1122.93 214.145C1125.97 214.145 1128.49 214.555 1130.48 215.375L1130.4 235.414ZM1175.91 312.758C1162.37 312.758 1151.39 308.51 1142.95 300.014C1134.57 291.459 1130.38 280.092 1130.38 265.912V263.275C1130.38 253.783 1132.2 245.316 1135.83 237.875C1139.52 230.375 1144.68 224.545 1151.3 220.385C1157.92 216.225 1165.3 214.145 1173.45 214.145C1186.4 214.145 1196.39 218.275 1203.42 226.537C1210.51 234.799 1214.05 246.488 1214.05 261.605V270.219H1151.92C1152.56 278.07 1155.17 284.281 1159.74 288.852C1164.37 293.422 1170.17 295.707 1177.14 295.707C1186.93 295.707 1194.89 291.752 1201.05 283.842L1212.56 294.828C1208.75 300.512 1203.65 304.936 1197.27 308.1C1190.94 311.205 1183.82 312.758 1175.91 312.758ZM1173.36 231.283C1167.5 231.283 1162.76 233.334 1159.12 237.436C1155.55 241.537 1153.26 247.25 1152.27 254.574H1192.96V252.992C1192.49 245.844 1190.59 240.453 1187.25 236.82C1183.91 233.129 1179.28 231.283 1173.36 231.283ZM1284.87 311H1262.72V183.031H1284.87V311ZM1393.92 200.961H1354.02V311H1331.96V200.961H1292.41V183.031H1393.92V200.961Z" fill="#0B2349"/>
</svg>
