<svg width="1384" height="427" viewBox="0 0 1384 427" fill="none" xmlns="http://www.w3.org/2000/svg">
<path d="M10.55 222.2C8.8 222.2 7.21667 221.817 5.8 221.05C4.4 220.267 3.3 219.2 2.5 217.85C1.7 216.483 1.3 214.95 1.3 213.25C1.3 211.55 1.7 210.025 2.5 208.675C3.3 207.308 4.40833 206.242 5.825 205.475C7.24167 204.692 8.825 204.3 10.575 204.3C11.9417 204.3 13.1917 204.533 14.325 205C15.4583 205.45 16.425 206.125 17.225 207.025L15.6 208.6C14.2833 207.217 12.6417 206.525 10.675 206.525C9.375 206.525 8.2 206.817 7.15 207.4C6.1 207.983 5.275 208.792 4.675 209.825C4.09167 210.842 3.8 211.983 3.8 213.25C3.8 214.517 4.09167 215.667 4.675 216.7C5.275 217.717 6.1 218.517 7.15 219.1C8.2 219.683 9.375 219.975 10.675 219.975C12.625 219.975 14.2667 219.275 15.6 217.875L17.225 219.45C16.425 220.35 15.45 221.033 14.3 221.5C13.1667 221.967 11.9167 222.2 10.55 222.2ZM31.6828 215.45C31.6828 215.633 31.6661 215.875 31.6328 216.175H20.8828C21.0328 217.342 21.5411 218.283 22.4078 219C23.2911 219.7 24.3828 220.05 25.6828 220.05C27.2661 220.05 28.5411 219.517 29.5078 218.45L30.8328 220C30.2328 220.7 29.4828 221.233 28.5828 221.6C27.6995 221.967 26.7078 222.15 25.6078 222.15C24.2078 222.15 22.9661 221.867 21.8828 221.3C20.7995 220.717 19.9578 219.908 19.3578 218.875C18.7745 217.842 18.4828 216.675 18.4828 215.375C18.4828 214.092 18.7661 212.933 19.3328 211.9C19.9161 210.867 20.7078 210.067 21.7078 209.5C22.7245 208.917 23.8661 208.625 25.1328 208.625C26.3995 208.625 27.5245 208.917 28.5078 209.5C29.5078 210.067 30.2828 210.867 30.8328 211.9C31.3995 212.933 31.6828 214.117 31.6828 215.45ZM25.1328 210.65C23.9828 210.65 23.0161 211 22.2328 211.7C21.4661 212.4 21.0161 213.317 20.8828 214.45H29.3828C29.2495 213.333 28.7911 212.425 28.0078 211.725C27.2411 211.008 26.2828 210.65 25.1328 210.65ZM35.4061 208.75H37.8061V218.4L45.9311 208.75H48.1061V222H45.7061V212.35L37.6061 222H35.4061V208.75ZM41.6061 207.025C40.3727 207.025 39.4144 206.733 38.7311 206.15C38.0477 205.55 37.6977 204.692 37.6811 203.575H39.3061C39.3227 204.192 39.5311 204.692 39.9311 205.075C40.3477 205.442 40.8977 205.625 41.5811 205.625C42.2644 205.625 42.8144 205.442 43.2311 205.075C43.6477 204.692 43.8644 204.192 43.8811 203.575H45.5561C45.5394 204.692 45.1811 205.55 44.4811 206.15C43.7811 206.733 42.8227 207.025 41.6061 207.025ZM63.3395 208.75V222H60.9395V216.65C59.5061 217.317 58.0811 217.65 56.6645 217.65C55.0145 217.65 53.7395 217.267 52.8395 216.5C51.9395 215.733 51.4895 214.583 51.4895 213.05V208.75H53.8895V212.9C53.8895 213.817 54.1728 214.508 54.7395 214.975C55.3228 215.442 56.1311 215.675 57.1645 215.675C58.3311 215.675 59.5895 215.383 60.9395 214.8V208.75H63.3395ZM72.7238 208.625C74.5572 208.625 75.9572 209.075 76.9238 209.975C77.9072 210.875 78.3988 212.217 78.3988 214V222H76.1238V220.25C75.7238 220.867 75.1488 221.342 74.3988 221.675C73.6655 221.992 72.7905 222.15 71.7738 222.15C70.2905 222.15 69.0988 221.792 68.1988 221.075C67.3155 220.358 66.8738 219.417 66.8738 218.25C66.8738 217.083 67.2988 216.15 68.1488 215.45C68.9988 214.733 70.3488 214.375 72.1988 214.375H75.9988V213.9C75.9988 212.867 75.6988 212.075 75.0988 211.525C74.4988 210.975 73.6155 210.7 72.4488 210.7C71.6655 210.7 70.8988 210.833 70.1488 211.1C69.3988 211.35 68.7655 211.692 68.2488 212.125L67.2488 210.325C67.9322 209.775 68.7488 209.358 69.6988 209.075C70.6488 208.775 71.6572 208.625 72.7238 208.625ZM72.1738 220.3C73.0905 220.3 73.8822 220.1 74.5488 219.7C75.2155 219.283 75.6988 218.7 75.9988 217.95V216.1H72.2988C70.2655 216.1 69.2488 216.783 69.2488 218.15C69.2488 218.817 69.5072 219.342 70.0238 219.725C70.5405 220.108 71.2572 220.3 72.1738 220.3ZM88.4955 222.15C87.1455 222.15 85.9372 221.858 84.8705 221.275C83.8205 220.692 82.9955 219.892 82.3955 218.875C81.7955 217.842 81.4955 216.675 81.4955 215.375C81.4955 214.075 81.7955 212.917 82.3955 211.9C82.9955 210.867 83.8205 210.067 84.8705 209.5C85.9372 208.917 87.1455 208.625 88.4955 208.625C89.6955 208.625 90.7622 208.867 91.6955 209.35C92.6455 209.833 93.3788 210.533 93.8955 211.45L92.0705 212.625C91.6538 211.992 91.1372 211.517 90.5205 211.2C89.9038 210.883 89.2205 210.725 88.4705 210.725C87.6038 210.725 86.8205 210.917 86.1205 211.3C85.4372 211.683 84.8955 212.233 84.4955 212.95C84.1122 213.65 83.9205 214.458 83.9205 215.375C83.9205 216.308 84.1122 217.133 84.4955 217.85C84.8955 218.55 85.4372 219.092 86.1205 219.475C86.8205 219.858 87.6038 220.05 88.4705 220.05C89.2205 220.05 89.9038 219.892 90.5205 219.575C91.1372 219.258 91.6538 218.783 92.0705 218.15L93.8955 219.3C93.3788 220.217 92.6455 220.925 91.6955 221.425C90.7622 221.908 89.6955 222.15 88.4955 222.15ZM113.592 210.85H108.742V222H106.342V210.85H101.492V208.75H113.592V210.85ZM120.771 208.625C122.604 208.625 124.004 209.075 124.971 209.975C125.954 210.875 126.446 212.217 126.446 214V222H124.171V220.25C123.771 220.867 123.196 221.342 122.446 221.675C121.712 221.992 120.837 222.15 119.821 222.15C118.337 222.15 117.146 221.792 116.246 221.075C115.362 220.358 114.921 219.417 114.921 218.25C114.921 217.083 115.346 216.15 116.196 215.45C117.046 214.733 118.396 214.375 120.246 214.375H124.046V213.9C124.046 212.867 123.746 212.075 123.146 211.525C122.546 210.975 121.662 210.7 120.496 210.7C119.712 210.7 118.946 210.833 118.196 211.1C117.446 211.35 116.812 211.692 116.296 212.125L115.296 210.325C115.979 209.775 116.796 209.358 117.746 209.075C118.696 208.775 119.704 208.625 120.771 208.625ZM120.221 220.3C121.137 220.3 121.929 220.1 122.596 219.7C123.262 219.283 123.746 218.7 124.046 217.95V216.1H120.346C118.312 216.1 117.296 216.783 117.296 218.15C117.296 218.817 117.554 219.342 118.071 219.725C118.587 220.108 119.304 220.3 120.221 220.3ZM137.517 209.2C138.751 209.2 139.851 209.475 140.817 210.025C141.784 210.575 142.534 211.342 143.067 212.325C143.617 213.292 143.892 214.4 143.892 215.65C143.892 216.933 143.601 218.075 143.017 219.075C142.451 220.058 141.642 220.825 140.592 221.375C139.559 221.925 138.376 222.2 137.042 222.2C134.792 222.2 133.051 221.433 131.817 219.9C130.601 218.35 129.992 216.175 129.992 213.375C129.992 210.658 130.551 208.533 131.667 207C132.784 205.45 134.492 204.425 136.792 203.925L142.842 202.575L143.192 204.775L137.617 205.975C135.884 206.358 134.592 207.008 133.742 207.925C132.892 208.842 132.409 210.158 132.292 211.875C132.859 211.025 133.592 210.367 134.492 209.9C135.392 209.433 136.401 209.2 137.517 209.2ZM137.092 220.2C137.942 220.2 138.692 220.008 139.342 219.625C140.009 219.242 140.526 218.717 140.892 218.05C141.259 217.367 141.442 216.592 141.442 215.725C141.442 214.408 141.042 213.35 140.242 212.55C139.442 211.75 138.392 211.35 137.092 211.35C135.792 211.35 134.734 211.75 133.917 212.55C133.117 213.35 132.717 214.408 132.717 215.725C132.717 216.592 132.901 217.367 133.267 218.05C133.651 218.717 134.176 219.242 134.842 219.625C135.509 220.008 136.259 220.2 137.092 220.2ZM158.597 208.75V222H156.197V210.85H150.497L150.347 213.8C150.264 215.583 150.106 217.075 149.872 218.275C149.639 219.458 149.256 220.408 148.722 221.125C148.189 221.842 147.447 222.2 146.497 222.2C146.064 222.2 145.572 222.125 145.022 221.975L145.172 219.95C145.389 220 145.589 220.025 145.772 220.025C146.439 220.025 146.939 219.733 147.272 219.15C147.606 218.567 147.822 217.875 147.922 217.075C148.022 216.275 148.114 215.133 148.197 213.65L148.422 208.75H158.597ZM163.238 208.75H165.638V218.4L173.763 208.75H175.938V222H173.538V212.35L165.438 222H163.238V208.75ZM194.746 219.9V225.175H192.471V222H180.596V208.75H182.996V219.9H190.246V208.75H192.646V219.9H194.746ZM202.582 208.625C204.416 208.625 205.816 209.075 206.782 209.975C207.766 210.875 208.257 212.217 208.257 214V222H205.982V220.25C205.582 220.867 205.007 221.342 204.257 221.675C203.524 221.992 202.649 222.15 201.632 222.15C200.149 222.15 198.957 221.792 198.057 221.075C197.174 220.358 196.732 219.417 196.732 218.25C196.732 217.083 197.157 216.15 198.007 215.45C198.857 214.733 200.207 214.375 202.057 214.375H205.857V213.9C205.857 212.867 205.557 212.075 204.957 211.525C204.357 210.975 203.474 210.7 202.307 210.7C201.524 210.7 200.757 210.833 200.007 211.1C199.257 211.35 198.624 211.692 198.107 212.125L197.107 210.325C197.791 209.775 198.607 209.358 199.557 209.075C200.507 208.775 201.516 208.625 202.582 208.625ZM202.032 220.3C202.949 220.3 203.741 220.1 204.407 219.7C205.074 219.283 205.557 218.7 205.857 217.95V216.1H202.157C200.124 216.1 199.107 216.783 199.107 218.15C199.107 218.817 199.366 219.342 199.882 219.725C200.399 220.108 201.116 220.3 202.032 220.3ZM231.568 208.75V222H229.168V210.85H221.693V222H219.293V208.75H231.568ZM248.037 208.75L241.612 223.325C241.045 224.675 240.378 225.625 239.612 226.175C238.862 226.725 237.953 227 236.887 227C236.237 227 235.603 226.892 234.987 226.675C234.387 226.475 233.887 226.175 233.487 225.775L234.512 223.975C235.195 224.625 235.987 224.95 236.887 224.95C237.47 224.95 237.953 224.792 238.337 224.475C238.737 224.175 239.095 223.65 239.412 222.9L239.837 221.975L233.987 208.75H236.487L241.112 219.35L245.687 208.75H248.037ZM255.903 222.15C254.553 222.15 253.344 221.858 252.278 221.275C251.228 220.692 250.403 219.892 249.803 218.875C249.203 217.842 248.903 216.675 248.903 215.375C248.903 214.075 249.203 212.917 249.803 211.9C250.403 210.867 251.228 210.067 252.278 209.5C253.344 208.917 254.553 208.625 255.903 208.625C257.103 208.625 258.169 208.867 259.103 209.35C260.053 209.833 260.786 210.533 261.303 211.45L259.478 212.625C259.061 211.992 258.544 211.517 257.928 211.2C257.311 210.883 256.628 210.725 255.878 210.725C255.011 210.725 254.228 210.917 253.528 211.3C252.844 211.683 252.303 212.233 251.903 212.95C251.519 213.65 251.328 214.458 251.328 215.375C251.328 216.308 251.519 217.133 251.903 217.85C252.303 218.55 252.844 219.092 253.528 219.475C254.228 219.858 255.011 220.05 255.878 220.05C256.628 220.05 257.311 219.892 257.928 219.575C258.544 219.258 259.061 218.783 259.478 218.15L261.303 219.3C260.786 220.217 260.053 220.925 259.103 221.425C258.169 221.908 257.103 222.15 255.903 222.15ZM274.114 210.85H269.264V222H266.864V210.85H262.014V208.75H274.114V210.85ZM281.293 208.625C283.126 208.625 284.526 209.075 285.493 209.975C286.476 210.875 286.968 212.217 286.968 214V222H284.693V220.25C284.293 220.867 283.718 221.342 282.968 221.675C282.235 221.992 281.36 222.15 280.343 222.15C278.86 222.15 277.668 221.792 276.768 221.075C275.885 220.358 275.443 219.417 275.443 218.25C275.443 217.083 275.868 216.15 276.718 215.45C277.568 214.733 278.918 214.375 280.768 214.375H284.568V213.9C284.568 212.867 284.268 212.075 283.668 211.525C283.068 210.975 282.185 210.7 281.018 210.7C280.235 210.7 279.468 210.833 278.718 211.1C277.968 211.35 277.335 211.692 276.818 212.125L275.818 210.325C276.501 209.775 277.318 209.358 278.268 209.075C279.218 208.775 280.226 208.625 281.293 208.625ZM280.743 220.3C281.66 220.3 282.451 220.1 283.118 219.7C283.785 219.283 284.268 218.7 284.568 217.95V216.1H280.868C278.835 216.1 277.818 216.783 277.818 218.15C277.818 218.817 278.076 219.342 278.593 219.725C279.11 220.108 279.826 220.3 280.743 220.3ZM301.915 208.75V222H299.765V217.8H295.915H295.64L292.74 222H290.165L293.39 217.475C292.39 217.175 291.623 216.683 291.09 216C290.557 215.3 290.29 214.433 290.29 213.4C290.29 211.883 290.807 210.733 291.84 209.95C292.873 209.15 294.298 208.75 296.115 208.75H301.915ZM292.74 213.475C292.74 214.358 293.015 215.017 293.565 215.45C294.132 215.867 294.973 216.075 296.09 216.075H299.765V210.85H296.19C293.89 210.85 292.74 211.725 292.74 213.475Z" fill="black"/>
<path d="M967.4 219.825V225.825H965.075V222H950.675L950.65 225.825H948.325L948.35 219.825H949.2C950.3 219.758 951.075 218.892 951.525 217.225C951.975 215.542 952.25 213.175 952.35 210.125L952.525 204.5H964.825V219.825H967.4ZM954.55 210.35C954.467 212.817 954.267 214.858 953.95 216.475C953.65 218.092 953.158 219.208 952.475 219.825H962.35V206.675H954.675L954.55 210.35ZM975.8 222.15C974.483 222.15 973.3 221.858 972.25 221.275C971.2 220.692 970.375 219.892 969.775 218.875C969.191 217.842 968.9 216.675 968.9 215.375C968.9 214.075 969.191 212.917 969.775 211.9C970.375 210.867 971.2 210.067 972.25 209.5C973.3 208.917 974.483 208.625 975.8 208.625C977.116 208.625 978.291 208.917 979.325 209.5C980.375 210.067 981.191 210.867 981.775 211.9C982.375 212.917 982.675 214.075 982.675 215.375C982.675 216.675 982.375 217.842 981.775 218.875C981.191 219.892 980.375 220.692 979.325 221.275C978.291 221.858 977.116 222.15 975.8 222.15ZM975.8 220.05C976.65 220.05 977.408 219.858 978.075 219.475C978.758 219.075 979.291 218.525 979.675 217.825C980.058 217.108 980.25 216.292 980.25 215.375C980.25 214.458 980.058 213.65 979.675 212.95C979.291 212.233 978.758 211.683 978.075 211.3C977.408 210.917 976.65 210.725 975.8 210.725C974.95 210.725 974.183 210.917 973.5 211.3C972.833 211.683 972.3 212.233 971.9 212.95C971.516 213.65 971.325 214.458 971.325 215.375C971.325 216.292 971.516 217.108 971.9 217.825C972.3 218.525 972.833 219.075 973.5 219.475C974.183 219.858 974.95 220.05 975.8 220.05ZM992.89 209.2C994.124 209.2 995.224 209.475 996.19 210.025C997.157 210.575 997.907 211.342 998.44 212.325C998.99 213.292 999.265 214.4 999.265 215.65C999.265 216.933 998.974 218.075 998.39 219.075C997.824 220.058 997.015 220.825 995.965 221.375C994.932 221.925 993.749 222.2 992.415 222.2C990.165 222.2 988.424 221.433 987.19 219.9C985.974 218.35 985.365 216.175 985.365 213.375C985.365 210.658 985.924 208.533 987.04 207C988.157 205.45 989.865 204.425 992.165 203.925L998.215 202.575L998.565 204.775L992.99 205.975C991.257 206.358 989.965 207.008 989.115 207.925C988.265 208.842 987.782 210.158 987.665 211.875C988.232 211.025 988.965 210.367 989.865 209.9C990.765 209.433 991.774 209.2 992.89 209.2ZM992.465 220.2C993.315 220.2 994.065 220.008 994.715 219.625C995.382 219.242 995.899 218.717 996.265 218.05C996.632 217.367 996.815 216.592 996.815 215.725C996.815 214.408 996.415 213.35 995.615 212.55C994.815 211.75 993.765 211.35 992.465 211.35C991.165 211.35 990.107 211.75 989.29 212.55C988.49 213.35 988.09 214.408 988.09 215.725C988.09 216.592 988.274 217.367 988.64 218.05C989.024 218.717 989.549 219.242 990.215 219.625C990.882 220.008 991.632 220.2 992.465 220.2ZM1007.3 208.625C1009.13 208.625 1010.53 209.075 1011.5 209.975C1012.48 210.875 1012.97 212.217 1012.97 214V222H1010.7V220.25C1010.3 220.867 1009.72 221.342 1008.97 221.675C1008.24 221.992 1007.36 222.15 1006.35 222.15C1004.86 222.15 1003.67 221.792 1002.77 221.075C1001.89 220.358 1001.45 219.417 1001.45 218.25C1001.45 217.083 1001.87 216.15 1002.72 215.45C1003.57 214.733 1004.92 214.375 1006.77 214.375H1010.57V213.9C1010.57 212.867 1010.27 212.075 1009.67 211.525C1009.07 210.975 1008.19 210.7 1007.02 210.7C1006.24 210.7 1005.47 210.833 1004.72 211.1C1003.97 211.35 1003.34 211.692 1002.82 212.125L1001.82 210.325C1002.5 209.775 1003.32 209.358 1004.27 209.075C1005.22 208.775 1006.23 208.625 1007.3 208.625ZM1006.75 220.3C1007.66 220.3 1008.45 220.1 1009.12 219.7C1009.79 219.283 1010.27 218.7 1010.57 217.95V216.1H1006.87C1004.84 216.1 1003.82 216.783 1003.82 218.15C1003.82 218.817 1004.08 219.342 1004.6 219.725C1005.11 220.108 1005.83 220.3 1006.75 220.3ZM1026.32 215.125C1028.03 215.558 1028.89 216.633 1028.89 218.35C1028.89 219.517 1028.45 220.417 1027.57 221.05C1026.7 221.683 1025.4 222 1023.67 222H1017.29V208.75H1023.44C1025.01 208.75 1026.23 209.05 1027.12 209.65C1028 210.233 1028.44 211.067 1028.44 212.15C1028.44 212.85 1028.25 213.458 1027.87 213.975C1027.5 214.475 1026.98 214.858 1026.32 215.125ZM1019.64 214.45H1023.24C1024.16 214.45 1024.85 214.283 1025.32 213.95C1025.8 213.617 1026.04 213.133 1026.04 212.5C1026.04 211.233 1025.11 210.6 1023.24 210.6H1019.64V214.45ZM1023.49 220.15C1024.49 220.15 1025.24 219.992 1025.74 219.675C1026.24 219.358 1026.49 218.867 1026.49 218.2C1026.49 217.517 1026.26 217.008 1025.79 216.675C1025.34 216.342 1024.63 216.175 1023.64 216.175H1019.64V220.15H1023.49ZM1038.77 213.25C1040.46 213.267 1041.74 213.65 1042.62 214.4C1043.51 215.15 1043.95 216.208 1043.95 217.575C1043.95 219.008 1043.47 220.117 1042.5 220.9C1041.55 221.667 1040.18 222.042 1038.4 222.025L1032.65 222V208.75H1035.05V213.225L1038.77 213.25ZM1038.2 220.2C1039.28 220.217 1040.1 220 1040.65 219.55C1041.22 219.1 1041.5 218.433 1041.5 217.55C1041.5 216.683 1041.22 216.05 1040.67 215.65C1040.14 215.25 1039.32 215.042 1038.2 215.025L1035.05 214.975V220.175L1038.2 220.2ZM1055.61 210.85H1050.76V222H1048.36V210.85H1043.51V208.75H1055.61V210.85ZM1069.45 215.45C1069.45 215.633 1069.44 215.875 1069.4 216.175H1058.65C1058.8 217.342 1059.31 218.283 1060.18 219C1061.06 219.7 1062.15 220.05 1063.45 220.05C1065.04 220.05 1066.31 219.517 1067.28 218.45L1068.6 220C1068 220.7 1067.25 221.233 1066.35 221.6C1065.47 221.967 1064.48 222.15 1063.38 222.15C1061.98 222.15 1060.74 221.867 1059.65 221.3C1058.57 220.717 1057.73 219.908 1057.13 218.875C1056.54 217.842 1056.25 216.675 1056.25 215.375C1056.25 214.092 1056.54 212.933 1057.1 211.9C1057.69 210.867 1058.48 210.067 1059.48 209.5C1060.49 208.917 1061.64 208.625 1062.9 208.625C1064.17 208.625 1065.29 208.917 1066.28 209.5C1067.28 210.067 1068.05 210.867 1068.6 211.9C1069.17 212.933 1069.45 214.117 1069.45 215.45ZM1062.9 210.65C1061.75 210.65 1060.79 211 1060 211.7C1059.24 212.4 1058.79 213.317 1058.65 214.45H1067.15C1067.02 213.333 1066.56 212.425 1065.78 211.725C1065.01 211.008 1064.05 210.65 1062.9 210.65ZM1093.37 219.9V225.075H1091.12V222H1080.04V225.075H1077.77V219.9H1078.47C1079.32 219.85 1079.9 219.25 1080.22 218.1C1080.53 216.95 1080.75 215.325 1080.87 213.225L1081.07 208.75H1091.34V219.9H1093.37ZM1083.07 213.4C1083 215.067 1082.86 216.45 1082.64 217.55C1082.44 218.633 1082.07 219.417 1081.52 219.9H1088.94V210.85H1083.19L1083.07 213.4ZM1101.22 208.625C1103.05 208.625 1104.45 209.075 1105.42 209.975C1106.4 210.875 1106.89 212.217 1106.89 214V222H1104.62V220.25C1104.22 220.867 1103.64 221.342 1102.89 221.675C1102.16 221.992 1101.28 222.15 1100.27 222.15C1098.78 222.15 1097.59 221.792 1096.69 221.075C1095.81 220.358 1095.37 219.417 1095.37 218.25C1095.37 217.083 1095.79 216.15 1096.64 215.45C1097.49 214.733 1098.84 214.375 1100.69 214.375H1104.49V213.9C1104.49 212.867 1104.19 212.075 1103.59 211.525C1102.99 210.975 1102.11 210.7 1100.94 210.7C1100.16 210.7 1099.39 210.833 1098.64 211.1C1097.89 211.35 1097.26 211.692 1096.74 212.125L1095.74 210.325C1096.43 209.775 1097.24 209.358 1098.19 209.075C1099.14 208.775 1100.15 208.625 1101.22 208.625ZM1100.67 220.3C1101.58 220.3 1102.38 220.1 1103.04 219.7C1103.71 219.283 1104.19 218.7 1104.49 217.95V216.1H1100.79C1098.76 216.1 1097.74 216.783 1097.74 218.15C1097.74 218.817 1098 219.342 1098.52 219.725C1099.03 220.108 1099.75 220.3 1100.67 220.3ZM1111.21 208.75H1113.61V214.375H1121.16V208.75H1123.56V222H1121.16V216.45H1113.61V222H1111.21V208.75ZM1128.23 208.75H1130.63V214.375H1138.18V208.75H1140.58V222H1138.18V216.45H1130.63V222H1128.23V208.75ZM1151.22 213.25C1152.89 213.267 1154.16 213.65 1155.05 214.4C1155.93 215.15 1156.37 216.208 1156.37 217.575C1156.37 219.008 1155.89 220.117 1154.92 220.9C1153.97 221.667 1152.61 222.042 1150.82 222.025L1145.25 222V208.75H1147.65V213.225L1151.22 213.25ZM1158.35 208.75H1160.75V222H1158.35V208.75ZM1150.65 220.2C1151.73 220.217 1152.55 220 1153.1 219.55C1153.66 219.1 1153.95 218.433 1153.95 217.55C1153.95 216.683 1153.67 216.05 1153.12 215.65C1152.57 215.25 1151.75 215.042 1150.65 215.025L1147.65 214.975V220.175L1150.65 220.2ZM1177.39 215.45C1177.39 215.633 1177.37 215.875 1177.34 216.175H1166.59C1166.74 217.342 1167.25 218.283 1168.11 219C1169 219.7 1170.09 220.05 1171.39 220.05C1172.97 220.05 1174.25 219.517 1175.21 218.45L1176.54 220C1175.94 220.7 1175.19 221.233 1174.29 221.6C1173.4 221.967 1172.41 222.15 1171.31 222.15C1169.91 222.15 1168.67 221.867 1167.59 221.3C1166.5 220.717 1165.66 219.908 1165.06 218.875C1164.48 217.842 1164.19 216.675 1164.19 215.375C1164.19 214.092 1164.47 212.933 1165.04 211.9C1165.62 210.867 1166.41 210.067 1167.41 209.5C1168.43 208.917 1169.57 208.625 1170.84 208.625C1172.1 208.625 1173.23 208.917 1174.21 209.5C1175.21 210.067 1175.99 210.867 1176.54 211.9C1177.1 212.933 1177.39 214.117 1177.39 215.45ZM1170.84 210.65C1169.69 210.65 1168.72 211 1167.94 211.7C1167.17 212.4 1166.72 213.317 1166.59 214.45H1175.09C1174.95 213.333 1174.5 212.425 1173.71 211.725C1172.95 211.008 1171.99 210.65 1170.84 210.65ZM1201.3 219.9V225.075H1199.05V222H1187.98V225.075H1185.7V219.9H1186.4C1187.25 219.85 1187.83 219.25 1188.15 218.1C1188.47 216.95 1188.68 215.325 1188.8 213.225L1189 208.75H1199.27V219.9H1201.3ZM1191 213.4C1190.93 215.067 1190.79 216.45 1190.58 217.55C1190.38 218.633 1190 219.417 1189.45 219.9H1196.88V210.85H1191.13L1191 213.4ZM1215.8 208.75V222H1213.4V210.85H1207.7L1207.55 213.8C1207.47 215.583 1207.31 217.075 1207.08 218.275C1206.84 219.458 1206.46 220.408 1205.93 221.125C1205.39 221.842 1204.65 222.2 1203.7 222.2C1203.27 222.2 1202.78 222.125 1202.23 221.975L1202.38 219.95C1202.59 220 1202.79 220.025 1202.98 220.025C1203.64 220.025 1204.14 219.733 1204.48 219.15C1204.81 218.567 1205.03 217.875 1205.13 217.075C1205.23 216.275 1205.32 215.133 1205.4 213.65L1205.63 208.75H1215.8ZM1231.07 208.75V222H1228.92V217.8H1225.07H1224.79L1221.89 222H1219.32L1222.54 217.475C1221.54 217.175 1220.78 216.683 1220.24 216C1219.71 215.3 1219.44 214.433 1219.44 213.4C1219.44 211.883 1219.96 210.733 1220.99 209.95C1222.03 209.15 1223.45 208.75 1225.27 208.75H1231.07ZM1221.89 213.475C1221.89 214.358 1222.17 215.017 1222.72 215.45C1223.28 215.867 1224.13 216.075 1225.24 216.075H1228.92V210.85H1225.34C1223.04 210.85 1221.89 211.725 1221.89 213.475ZM1248.24 222.15C1246.89 222.15 1245.68 221.858 1244.61 221.275C1243.56 220.692 1242.74 219.892 1242.14 218.875C1241.54 217.842 1241.24 216.675 1241.24 215.375C1241.24 214.075 1241.54 212.917 1242.14 211.9C1242.74 210.867 1243.56 210.067 1244.61 209.5C1245.68 208.917 1246.89 208.625 1248.24 208.625C1249.44 208.625 1250.51 208.867 1251.44 209.35C1252.39 209.833 1253.12 210.533 1253.64 211.45L1251.81 212.625C1251.4 211.992 1250.88 211.517 1250.26 211.2C1249.65 210.883 1248.96 210.725 1248.21 210.725C1247.35 210.725 1246.56 210.917 1245.86 211.3C1245.18 211.683 1244.64 212.233 1244.24 212.95C1243.86 213.65 1243.66 214.458 1243.66 215.375C1243.66 216.308 1243.86 217.133 1244.24 217.85C1244.64 218.55 1245.18 219.092 1245.86 219.475C1246.56 219.858 1247.35 220.05 1248.21 220.05C1248.96 220.05 1249.65 219.892 1250.26 219.575C1250.88 219.258 1251.4 218.783 1251.81 218.15L1253.64 219.3C1253.12 220.217 1252.39 220.925 1251.44 221.425C1250.51 221.908 1249.44 222.15 1248.24 222.15ZM1263.77 208.625C1265.05 208.625 1266.2 208.908 1267.22 209.475C1268.24 210.042 1269.03 210.833 1269.6 211.85C1270.18 212.867 1270.47 214.042 1270.47 215.375C1270.47 216.708 1270.18 217.892 1269.6 218.925C1269.03 219.942 1268.24 220.733 1267.22 221.3C1266.2 221.867 1265.05 222.15 1263.77 222.15C1262.82 222.15 1261.95 221.967 1261.15 221.6C1260.36 221.233 1259.7 220.7 1259.15 220V226.85H1256.75V208.75H1259.05V210.85C1259.58 210.117 1260.25 209.567 1261.07 209.2C1261.89 208.817 1262.79 208.625 1263.77 208.625ZM1263.57 220.05C1264.42 220.05 1265.18 219.858 1265.85 219.475C1266.53 219.075 1267.06 218.525 1267.45 217.825C1267.85 217.108 1268.05 216.292 1268.05 215.375C1268.05 214.458 1267.85 213.65 1267.45 212.95C1267.06 212.233 1266.53 211.683 1265.85 211.3C1265.18 210.917 1264.42 210.725 1263.57 210.725C1262.74 210.725 1261.98 210.925 1261.3 211.325C1260.63 211.708 1260.1 212.25 1259.7 212.95C1259.31 213.65 1259.12 214.458 1259.12 215.375C1259.12 216.292 1259.31 217.108 1259.7 217.825C1260.08 218.525 1260.61 219.075 1261.3 219.475C1261.98 219.858 1262.74 220.05 1263.57 220.05ZM1278.56 208.625C1280.39 208.625 1281.79 209.075 1282.76 209.975C1283.74 210.875 1284.24 212.217 1284.24 214V222H1281.96V220.25C1281.56 220.867 1280.99 221.342 1280.24 221.675C1279.5 221.992 1278.63 222.15 1277.61 222.15C1276.13 222.15 1274.94 221.792 1274.04 221.075C1273.15 220.358 1272.71 219.417 1272.71 218.25C1272.71 217.083 1273.14 216.15 1273.99 215.45C1274.84 214.733 1276.19 214.375 1278.04 214.375H1281.84V213.9C1281.84 212.867 1281.54 212.075 1280.94 211.525C1280.34 210.975 1279.45 210.7 1278.29 210.7C1277.5 210.7 1276.74 210.833 1275.99 211.1C1275.24 211.35 1274.6 211.692 1274.09 212.125L1273.09 210.325C1273.77 209.775 1274.59 209.358 1275.54 209.075C1276.49 208.775 1277.49 208.625 1278.56 208.625ZM1278.01 220.3C1278.93 220.3 1279.72 220.1 1280.39 219.7C1281.05 219.283 1281.54 218.7 1281.84 217.95V216.1H1278.14C1276.1 216.1 1275.09 216.783 1275.09 218.15C1275.09 218.817 1275.34 219.342 1275.86 219.725C1276.38 220.108 1277.09 220.3 1278.01 220.3ZM1297.58 215.125C1299.3 215.558 1300.16 216.633 1300.16 218.35C1300.16 219.517 1299.72 220.417 1298.83 221.05C1297.97 221.683 1296.67 222 1294.93 222H1288.56V208.75H1294.71C1296.27 208.75 1297.5 209.05 1298.38 209.65C1299.27 210.233 1299.71 211.067 1299.71 212.15C1299.71 212.85 1299.52 213.458 1299.13 213.975C1298.77 214.475 1298.25 214.858 1297.58 215.125ZM1290.91 214.45H1294.51C1295.42 214.45 1296.12 214.283 1296.58 213.95C1297.07 213.617 1297.31 213.133 1297.31 212.5C1297.31 211.233 1296.37 210.6 1294.51 210.6H1290.91V214.45ZM1294.76 220.15C1295.76 220.15 1296.51 219.992 1297.01 219.675C1297.51 219.358 1297.76 218.867 1297.76 218.2C1297.76 217.517 1297.52 217.008 1297.06 216.675C1296.61 216.342 1295.89 216.175 1294.91 216.175H1290.91V220.15H1294.76ZM1303.91 208.75H1306.31V214.375H1313.86V208.75H1316.26V222H1313.86V216.45H1306.31V222H1303.91V208.75ZM1332.91 215.45C1332.91 215.633 1332.89 215.875 1332.86 216.175H1322.11C1322.26 217.342 1322.76 218.283 1323.63 219C1324.51 219.7 1325.61 220.05 1326.91 220.05C1328.49 220.05 1329.76 219.517 1330.73 218.45L1332.06 220C1331.46 220.7 1330.71 221.233 1329.81 221.6C1328.92 221.967 1327.93 222.15 1326.83 222.15C1325.43 222.15 1324.19 221.867 1323.11 221.3C1322.02 220.717 1321.18 219.908 1320.58 218.875C1320 217.842 1319.71 216.675 1319.71 215.375C1319.71 214.092 1319.99 212.933 1320.56 211.9C1321.14 210.867 1321.93 210.067 1322.93 209.5C1323.95 208.917 1325.09 208.625 1326.36 208.625C1327.62 208.625 1328.75 208.917 1329.73 209.5C1330.73 210.067 1331.51 210.867 1332.06 211.9C1332.62 212.933 1332.91 214.117 1332.91 215.45ZM1326.36 210.65C1325.21 210.65 1324.24 211 1323.46 211.7C1322.69 212.4 1322.24 213.317 1322.11 214.45H1330.61C1330.47 213.333 1330.01 212.425 1329.23 211.725C1328.46 211.008 1327.51 210.65 1326.36 210.65ZM1336.63 208.75H1339.03V214.375H1346.58V208.75H1348.98V222H1346.58V216.45H1339.03V222H1336.63V208.75ZM1353.65 208.75H1356.05V218.4L1364.17 208.75H1366.35V222H1363.95V212.35L1355.85 222H1353.65V208.75ZM1381.63 208.75V222H1379.48V217.8H1375.63H1375.35L1372.45 222H1369.88L1373.1 217.475C1372.1 217.175 1371.34 216.683 1370.8 216C1370.27 215.3 1370 214.433 1370 213.4C1370 211.883 1370.52 210.733 1371.55 209.95C1372.59 209.15 1374.01 208.75 1375.83 208.75H1381.63ZM1372.45 213.475C1372.45 214.358 1372.73 215.017 1373.28 215.45C1373.85 215.867 1374.69 216.075 1375.8 216.075H1379.48V210.85H1375.9C1373.6 210.85 1372.45 211.725 1372.45 213.475Z" fill="black"/>
<path d="M434 243.981C507.915 243.981 615.173 175.733 672.853 175.733C731.918 175.733 726.664 174.375 819 193.051" stroke="black" stroke-width="2"/>
<mask id="path-4-inside-1" fill="white">
<path d="M578.744 161.09L528 368.363L571.978 376.48L610.036 232.157C610.036 232.157 626.669 235.919 643.584 231.026L686.716 366.1L728.334 347.72L665.01 156"/>
</mask>
<path d="M578.744 161.09L528 368.363L571.978 376.48L610.036 232.157C610.036 232.157 626.669 235.919 643.584 231.026L686.716 366.1L728.334 347.72L665.01 156" fill="#E7F6FF"/>
<path d="M528 368.363L526.057 367.887L525.554 369.945L527.637 370.33L528 368.363ZM571.978 376.48L571.615 378.446L573.439 378.783L573.912 376.99L571.978 376.48ZM610.036 232.157L610.478 230.206L608.595 229.78L608.102 231.647L610.036 232.157ZM643.584 231.026L645.489 230.417L644.897 228.564L643.028 229.105L643.584 231.026ZM686.716 366.1L684.811 366.708L685.488 368.829L687.524 367.929L686.716 366.1ZM728.334 347.72L729.142 349.549L730.803 348.816L730.233 347.092L728.334 347.72ZM576.801 160.615L526.057 367.887L529.943 368.839L580.686 161.566L576.801 160.615ZM527.637 370.33L571.615 378.446L572.341 374.513L528.363 366.396L527.637 370.33ZM573.912 376.99L611.97 232.667L608.102 231.647L570.044 375.97L573.912 376.99ZM610.036 232.157C609.595 234.107 609.596 234.108 609.596 234.108C609.597 234.108 609.597 234.108 609.598 234.108C609.599 234.108 609.6 234.109 609.602 234.109C609.605 234.11 609.61 234.111 609.615 234.112C609.626 234.114 609.64 234.117 609.659 234.122C609.696 234.13 609.749 234.141 609.818 234.155C609.954 234.184 610.153 234.224 610.408 234.273C610.92 234.371 611.661 234.503 612.6 234.646C614.477 234.93 617.151 235.255 620.362 235.423C626.771 235.759 635.398 235.476 644.139 232.947L643.028 229.105C634.855 231.469 626.709 231.751 620.572 231.429C617.511 231.268 614.969 230.959 613.199 230.691C612.315 230.557 611.624 230.433 611.16 230.344C610.928 230.3 610.752 230.264 610.637 230.24C610.579 230.228 610.537 230.219 610.51 230.213C610.497 230.21 610.487 230.208 610.482 230.207C610.479 230.206 610.477 230.206 610.477 230.206C610.476 230.206 610.476 230.206 610.476 230.206C610.476 230.206 610.477 230.206 610.477 230.206C610.477 230.206 610.478 230.206 610.036 232.157ZM641.678 231.634L684.811 366.708L688.622 365.491L645.489 230.417L641.678 231.634ZM687.524 367.929L729.142 349.549L727.526 345.89L685.908 364.27L687.524 367.929ZM730.233 347.092L666.909 155.373L663.111 156.627L726.435 348.347L730.233 347.092Z" fill="black" mask="url(#path-4-inside-1)"/>
<path d="M539.752 320.793L579.618 347.516L559.572 420.431L523.105 385.026L539.752 320.793Z" fill="#E7F6FF"/>
<path d="M559.577 422.18C559.129 422.18 558.692 422.008 558.363 421.688L521.896 386.282C521.446 385.845 521.266 385.201 521.423 384.594L538.07 320.361C538.211 319.815 538.609 319.37 539.137 319.169C539.666 318.967 540.258 319.036 540.727 319.351L580.593 346.074C581.217 346.491 581.503 347.261 581.304 347.984L561.258 420.899C561.095 421.493 560.63 421.957 560.035 422.119C559.884 422.161 559.729 422.18 559.577 422.18ZM525.053 384.487L558.677 417.133L577.609 348.27L540.828 323.615L525.053 384.487Z" fill="#161616"/>
<path d="M503.984 368.835C503.984 368.835 517.147 360.438 528.177 367.384C539.206 374.331 554.452 390.248 554.452 390.248" fill="#E7F6FF"/>
<path d="M554.458 391.991C553.999 391.991 553.541 391.811 553.198 391.453C553.048 391.295 537.971 375.61 527.253 368.859C523.127 366.26 518.16 365.693 512.488 367.165C508.115 368.302 504.956 370.286 504.925 370.305C504.11 370.821 503.035 370.581 502.519 369.769C502.003 368.956 502.241 367.881 503.052 367.364C503.195 367.272 506.628 365.104 511.505 363.818C518.094 362.08 524.182 362.804 529.111 365.908C540.195 372.89 555.088 388.385 555.716 389.041C556.382 389.736 556.359 390.84 555.663 391.506C555.326 391.83 554.891 391.991 554.458 391.991Z" fill="#161616"/>
<path d="M561.283 418.173C564.084 424.322 535.931 432.944 521.678 418.593C507.356 404.171 490.43 377.273 500.894 369.468C511.358 361.664 550.091 393.589 561.283 418.173Z" fill="#161616"/>
<path d="M503.991 383.952C503.44 383.952 502.897 383.691 502.558 383.203C502.009 382.412 502.204 381.327 502.995 380.777L511.99 374.529C512.781 373.982 513.866 374.177 514.416 374.967C514.965 375.758 514.77 376.844 513.978 377.393L504.984 383.641C504.681 383.852 504.334 383.952 503.991 383.952Z" fill="#0B2349"/>
<path d="M507.378 390.15C506.837 390.15 506.302 389.899 505.962 389.426C505.399 388.644 505.576 387.555 506.357 386.992L519.293 377.677C520.074 377.114 521.164 377.291 521.726 378.073C522.289 378.854 522.112 379.943 521.331 380.506L508.395 389.821C508.086 390.043 507.731 390.15 507.378 390.15Z" fill="#0B2349"/>
<path d="M510.749 396.338C510.2 396.338 509.659 396.08 509.32 395.596C508.767 394.806 508.958 393.72 509.747 393.167L523.413 383.597C524.202 383.044 525.288 383.236 525.841 384.024C526.393 384.814 526.202 385.9 525.413 386.452L511.748 396.023C511.444 396.236 511.094 396.338 510.749 396.338Z" fill="#0B2349"/>
<path d="M526.69 416.223C526.165 416.223 525.647 415.987 525.304 415.538C524.719 414.773 524.865 413.679 525.631 413.095L539.342 402.617C540.108 402.031 541.202 402.178 541.786 402.944C542.371 403.709 542.225 404.803 541.459 405.387L527.747 415.865C527.431 416.106 527.059 416.223 526.69 416.223Z" fill="#0B2349"/>
<path d="M531.745 420.719C531.22 420.719 530.702 420.483 530.359 420.034C529.773 419.269 529.92 418.175 530.686 417.591L544.398 407.113C545.164 406.527 546.257 406.674 546.841 407.44C547.426 408.205 547.28 409.299 546.514 409.883L532.802 420.361C532.485 420.602 532.114 420.719 531.745 420.719Z" fill="#0B2349"/>
<path d="M717.151 314.242L678.984 343.342L703.431 414.902L737.675 377.344L717.151 314.242Z" fill="#E7F6FF"/>
<path d="M703.429 416.651C703.311 416.651 703.192 416.639 703.074 416.614C702.471 416.489 701.978 416.054 701.779 415.471L677.332 343.912C677.089 343.201 677.329 342.416 677.925 341.961L716.091 312.861C716.541 312.518 717.13 312.415 717.668 312.583C718.207 312.751 718.632 313.171 718.806 313.708L739.331 376.809C739.525 377.405 739.384 378.06 738.962 378.523L704.717 416.083C704.383 416.449 703.913 416.651 703.429 416.651ZM681.038 343.973L704.125 411.556L735.701 376.924L716.25 317.124L681.038 343.973Z" fill="#161616"/>
<path d="M755.783 360.013C755.783 360.013 742.133 352.434 731.547 360.039C720.96 367.644 706.711 384.459 706.711 384.459" fill="#E7F6FF"/>
<path d="M706.715 386.203C706.317 386.203 705.916 386.068 705.589 385.789C704.854 385.167 704.764 384.067 705.386 383.332C705.974 382.639 719.897 366.266 730.535 358.623C735.266 355.225 741.3 354.134 747.981 355.465C752.928 356.451 756.486 358.407 756.635 358.49C757.476 358.957 757.78 360.018 757.313 360.86C756.845 361.701 755.784 362.002 754.944 361.539C754.912 361.521 751.639 359.733 747.204 358.865C741.452 357.741 736.528 358.612 732.57 361.455C722.281 368.847 708.188 385.42 708.047 385.587C707.702 385.994 707.21 386.203 706.715 386.203Z" fill="#161616"/>
<path d="M701.598 412.756C699.177 419.065 727.802 425.957 741.155 410.765C754.573 395.499 769.831 367.621 758.912 360.467C747.991 353.314 711.273 387.536 701.598 412.756Z" fill="#161616"/>
<path d="M756.601 375.124C756.292 375.124 755.979 375.043 755.696 374.871L746.338 369.183C745.515 368.682 745.254 367.609 745.754 366.786C746.255 365.964 747.328 365.704 748.15 366.202L757.508 371.89C758.331 372.391 758.592 373.464 758.092 374.287C757.764 374.826 757.189 375.124 756.601 375.124Z" fill="#0B2349"/>
<path d="M753.604 381.51C753.285 381.51 752.964 381.424 752.674 381.241L739.195 372.73C738.382 372.216 738.138 371.139 738.652 370.325C739.167 369.51 740.243 369.267 741.057 369.781L754.536 378.293C755.35 378.807 755.593 379.883 755.079 380.698C754.748 381.223 754.182 381.51 753.604 381.51Z" fill="#0B2349"/>
<path d="M750.605 387.903C750.294 387.903 749.979 387.82 749.695 387.646L735.473 378.925C734.651 378.421 734.395 377.348 734.898 376.527C735.403 375.706 736.478 375.45 737.296 375.953L751.518 384.674C752.339 385.177 752.596 386.251 752.093 387.071C751.763 387.608 751.192 387.903 750.605 387.903Z" fill="#0B2349"/>
<path d="M735.903 408.705C735.569 408.705 735.23 408.609 734.931 408.408L720.607 398.784C719.808 398.246 719.596 397.164 720.132 396.364C720.67 395.566 721.753 395.354 722.552 395.889L736.876 405.514C737.676 406.051 737.888 407.134 737.351 407.934C737.015 408.434 736.464 408.705 735.903 408.705Z" fill="#0B2349"/>
<path d="M731.125 413.501C730.791 413.501 730.452 413.405 730.153 413.205L715.83 403.581C715.03 403.043 714.818 401.961 715.355 401.161C715.892 400.362 716.975 400.151 717.775 400.686L732.098 410.31C732.898 410.848 733.11 411.93 732.573 412.73C732.236 413.231 731.686 413.501 731.125 413.501Z" fill="#0B2349"/>
<path d="M619.233 90.3827C611.82 90.3827 605.659 88.2787 600.89 84.112C592.278 76.5868 591.419 65.1277 591.387 64.6437C591.322 63.6835 592.049 62.8522 593.01 62.7881C593.965 62.7337 594.8 63.4491 594.865 64.4087C594.935 65.3934 596.842 88.4977 621.82 86.8066C642.086 85.4314 642.319 69.5329 642.319 68.8565C642.319 67.8934 643.099 67.1131 644.062 67.1131C645.025 67.1131 645.806 67.8934 645.806 68.8565C645.806 75.7109 640.842 89.0103 622.056 90.2851C621.097 90.3499 620.155 90.3827 619.233 90.3827Z" fill="#161616"/>
<path d="M607.854 97.2039C607.831 97.2039 607.806 97.2039 607.782 97.2025C606.819 97.1628 606.071 96.351 606.111 95.3894L606.389 88.5671C606.428 87.6054 607.242 86.8544 608.202 86.8962C609.165 86.9359 609.913 87.7477 609.873 88.7093L609.595 95.5316C609.557 96.4696 608.784 97.2039 607.854 97.2039Z" fill="#161616"/>
<path d="M629.99 94.359C629.126 94.359 628.376 93.7174 628.263 92.8374L627.612 87.7787C627.489 86.8233 628.164 85.9495 629.119 85.8275C630.064 85.702 630.947 86.3791 631.07 87.3345L631.721 92.3932C631.844 93.3485 631.169 94.2223 630.214 94.3444C630.139 94.3541 630.065 94.359 629.99 94.359Z" fill="#161616"/>
<path d="M619.579 156.884C618.616 156.884 617.836 156.103 617.836 155.14V95.8645C617.836 94.9014 618.616 94.1211 619.579 94.1211C620.542 94.1211 621.323 94.9014 621.323 95.8645V155.14C621.323 156.103 620.542 156.884 619.579 156.884Z" fill="#161616"/>
<path d="M588.614 103.838C588.31 103.838 588.109 104.005 587.829 103.838L560.327 87.4207C559.79 87.1006 559.467 86.5183 559.477 85.8941C559.488 85.2693 559.832 84.6989 560.378 84.3976L589.652 68.2599C590.495 67.7955 591.555 68.1009 592.02 68.9447C592.484 69.7879 592.178 70.8485 591.335 71.313L564.722 85.9841L589.616 100.844C590.443 101.338 590.09 101.98 589.597 102.807C589.271 103.354 589.208 103.838 588.614 103.838Z" fill="#161616"/>
<path d="M583.466 134.728C583.118 134.728 582.766 134.624 582.46 134.407L531.851 98.5595C531.776 98.5058 531.704 98.4458 531.637 98.3802C531.235 97.9848 521.826 88.5795 526.421 78.9364C530.693 69.9725 573.14 51.4575 577.966 49.3759C578.847 48.9952 583.902 47.0515 584.529 48.5045C585.342 50.3876 580.231 52.196 579.346 52.5775C579.231 52.6277 567.605 57.6522 555.637 63.6593C534.196 74.421 530.264 78.9769 529.569 80.4364C526.234 87.4345 533.124 94.9039 533.992 95.8035L584.475 131.562C585.261 132.119 584.362 132.428 583.805 133.214C583.465 133.694 584.012 134.728 583.466 134.728Z" fill="#161616"/>
<path d="M535.038 99.9243C534.383 99.9243 533.755 99.5533 533.458 98.9201C533.049 98.0484 533.425 97.0101 534.297 96.6021L560.486 84.3327C561.36 83.9247 562.397 84.3006 562.804 85.1716C563.212 86.0433 562.837 87.0817 561.965 87.4897L535.776 99.7591C535.538 99.8713 535.286 99.9243 535.038 99.9243Z" fill="#161616"/>
<path d="M652.045 102.174L652.061 102.214C652.274 102.769 652.543 103.009 652.78 103.114C653.028 103.225 653.33 103.228 653.672 103.144C654.014 103.059 654.352 102.898 654.636 102.737C654.776 102.658 654.898 102.582 654.998 102.518C655.011 102.51 655.025 102.501 655.039 102.492C655.114 102.445 655.201 102.389 655.26 102.36C655.368 102.305 655.52 102.232 655.686 102.152C656.055 101.974 656.494 101.762 656.674 101.654C656.674 101.654 656.674 101.654 656.675 101.654L683.702 85.3016L683.704 85.2999C684.087 85.0717 684.318 84.6572 684.31 84.2113C684.302 83.7665 684.057 83.3598 683.667 83.1442L652.045 102.174ZM652.045 102.174L652.037 102.16C652.039 102.135 652.055 102.053 652.168 101.883C652.332 101.634 652.616 101.335 652.969 101.022C653.669 100.402 654.535 99.8166 654.927 99.5822M652.045 102.174L654.927 99.5822M654.927 99.5822L679.82 84.7222L680.569 84.2756L679.806 83.855L653.194 69.1839C653.194 69.1839 653.194 69.1839 653.194 69.1839C652.592 68.8521 652.374 68.0963 652.705 67.4949C653.037 66.8934 653.794 66.675 654.394 67.0064L654.394 67.0066L683.667 83.144L654.927 99.5822Z" fill="#161616" stroke="black"/>
<path d="M659.596 131.682L659.596 131.682C659.199 131.122 659.332 130.345 659.892 129.948L710.374 94.1911L710.413 94.1635L710.446 94.1291C710.89 93.6654 712.867 91.523 714.314 88.5979C715.757 85.6791 716.718 81.8853 714.962 78.1989L714.962 78.1988C714.556 77.3474 713.308 75.7819 709.545 73.1067C705.766 70.4195 699.398 66.5771 688.666 61.1906C676.812 55.2408 665.295 50.2548 664.938 50.1002C664.934 50.0986 664.931 50.0975 664.93 50.0969L664.929 50.0966C664.298 49.8244 664.008 49.0927 664.28 48.4622C664.552 47.8312 665.285 47.5414 665.914 47.813L665.914 47.8132C668.324 48.8526 680.13 53.9967 691.865 59.9985C697.733 63 703.573 66.2107 708.207 69.2256C710.525 70.7334 712.532 72.1861 714.087 73.5336C715.652 74.8901 716.718 76.1046 717.206 77.1289C719.41 81.753 718.271 86.3406 716.478 89.8777C714.685 93.4139 712.276 95.8199 712.091 96.0021L712.09 96.003C712.044 96.0487 711.993 96.0911 711.939 96.1292L711.939 96.1296L661.331 131.977C661.11 132.133 660.86 132.206 660.612 132.206C660.221 132.206 659.838 132.023 659.596 131.682Z" fill="#161616" stroke="black"/>
<path d="M708.73 97.6321L708.729 97.6319L682.54 85.3618L682.54 85.3617C681.919 85.0709 681.651 84.3304 681.942 83.7088L681.942 83.7085C682.233 83.0868 682.972 82.8183 683.595 83.1104C683.595 83.1104 683.595 83.1104 683.595 83.1104L709.784 95.3805L709.784 95.3806C710.406 95.6714 710.674 96.4119 710.382 97.0335L710.382 97.034C710.172 97.484 709.725 97.75 709.256 97.75C709.08 97.75 708.901 97.7124 708.73 97.6321Z" fill="#161616" stroke="black"/>
<path d="M623.967 71.9015C600.35 71.9015 581.137 55.7744 581.137 35.9511C581.137 16.1272 600.35 0 623.967 0C647.584 0 666.798 16.1272 666.798 35.9511C666.798 55.7744 647.584 71.9015 623.967 71.9015ZM623.967 3.48681C602.273 3.48681 584.624 18.0505 584.624 35.9511C584.624 53.8517 602.273 68.4147 623.967 68.4147C645.662 68.4147 663.311 53.8517 663.311 35.9511C663.311 18.0498 645.662 3.48681 623.967 3.48681Z" fill="black"/>
<path d="M625.043 56.7347C619.348 56.7347 613.743 54.9229 609.259 51.6335C604.087 47.8377 600.825 42.339 600.312 36.5467C599.839 31.2245 601.667 26.0988 605.459 22.1141C609.692 17.6656 615.999 15.1133 622.762 15.1133C628.457 15.1133 634.062 16.925 638.546 20.2145C643.718 24.0102 646.98 29.5089 647.494 35.3005C647.966 40.6228 646.138 45.7484 642.345 49.7332C638.112 54.183 631.805 56.7347 625.043 56.7347ZM622.762 18.6008C616.95 18.6008 611.563 20.7577 607.986 24.5179C604.895 27.7662 603.403 31.9281 603.786 36.2385C604.211 41.0328 606.959 45.6194 611.324 48.8217C615.213 51.6753 620.085 53.2472 625.044 53.2472C630.856 53.2472 636.242 51.0902 639.82 47.3293C642.912 44.081 644.404 39.9185 644.021 35.6081C643.595 30.8144 640.848 26.2278 636.483 23.0256C632.594 20.1727 627.721 18.6008 622.762 18.6008Z" fill="#161616"/>
<path d="M630.506 52.8262C624.584 52.8262 618.562 50.8003 613.549 47.1211C607.837 42.9285 604.263 37.1648 603.743 31.3063C603.356 26.9457 604.753 22.8528 607.677 19.7809C611.005 16.2823 615.997 14.3555 621.731 14.3555C627.653 14.3555 633.675 16.3813 638.689 20.0606C644.4 24.2524 647.975 30.0155 648.495 35.8733C648.883 40.2339 647.486 44.3274 644.562 47.4C641.232 50.8994 636.24 52.8262 630.506 52.8262ZM621.73 17.843C616.96 17.843 612.866 19.3848 610.202 22.1855C607.947 24.5551 606.914 27.6026 607.216 30.9987C607.647 35.8593 610.708 40.7109 615.613 44.3107C620.031 47.5534 625.321 49.3401 630.506 49.3401C635.276 49.3401 639.371 47.7975 642.037 44.9969C644.291 42.6272 645.324 39.5791 645.021 36.1822C644.59 31.3223 641.529 26.4715 636.625 22.8724C632.205 19.6289 626.916 17.843 621.73 17.843Z" fill="#161616"/>
<path d="M620.168 80.3148H616.291C615.752 80.3148 615.243 80.0651 614.912 79.6391C614.582 79.213 614.467 78.6579 614.603 78.1355L615.838 73.3509C616.078 72.4186 617.027 71.8586 617.962 72.0985C618.894 72.3391 619.455 73.2896 619.214 74.2219L618.541 76.828H620.168C621.131 76.828 621.912 77.6083 621.912 78.5714C621.912 79.5344 621.131 80.3148 620.168 80.3148Z" fill="#161616"/>
<path d="M650.95 99.7383L664.355 158.321L579.487 162.444L587.632 102.816C587.676 102.79 587.723 102.763 587.775 102.733C588.139 102.525 588.686 102.222 589.406 101.854C590.847 101.119 592.979 100.123 595.727 99.0964C601.223 97.0426 609.172 94.8664 618.959 94.391C628.745 93.9157 636.868 95.3113 642.537 96.8228C645.371 97.5784 647.59 98.3625 649.095 98.955C649.848 99.2512 650.421 99.4994 650.804 99.672C650.856 99.6955 650.905 99.7176 650.95 99.7383Z" fill="#0B2349" fill-opacity="0.25" stroke="black" stroke-width="2"/>
<path d="M607.782 96.8693C607.857 96.8522 607.929 96.8357 608 96.8198V159.753V159.765L608 159.776L608 159.776L608 159.777L608 159.777L608 159.778L608 159.784C608 159.788 608 159.792 608 159.798C608 159.806 608 159.816 608 159.829C608 159.871 607.999 159.937 607.996 160.023C607.99 160.196 607.974 160.448 607.938 160.754C607.865 161.372 607.711 162.183 607.389 162.992C607.068 163.801 606.595 164.572 605.904 165.158C605.226 165.733 604.289 166.171 602.955 166.253C600.373 166.41 598.961 165.047 598.131 163.54C597.708 162.773 597.45 161.983 597.298 161.377C597.223 161.076 597.176 160.826 597.147 160.655C597.133 160.571 597.124 160.506 597.119 160.464L598.531 99.2202C599.901 98.7766 602.248 98.1783 604.439 97.651C605.71 97.3452 606.905 97.0691 607.782 96.8693Z" fill="#E7F6FF" stroke="black" stroke-width="2"/>
<path d="M601.685 162.6C602.579 162.6 603.304 161.876 603.304 160.982C603.304 160.088 602.579 159.363 601.685 159.363C600.791 159.363 600.066 160.088 600.066 160.982C600.066 161.876 600.791 162.6 601.685 162.6Z" fill="#0C0000"/>
<path d="M633.352 158.219L633.352 158.218L633.352 158.217L633.352 158.217L633.352 158.217L633.352 158.205L633.351 158.191L630.478 95.324C630.547 95.3365 630.619 95.3495 630.694 95.3629C631.576 95.5224 632.779 95.7439 634.06 95.9915C636.268 96.4182 638.634 96.9091 640.021 97.2898L644.216 158.408C644.213 158.45 644.206 158.516 644.196 158.601C644.176 158.773 644.141 159.025 644.08 159.329C643.958 159.941 643.739 160.742 643.353 161.527C642.597 163.069 641.254 164.494 638.669 164.455C637.332 164.435 636.378 164.04 635.676 163.497C634.961 162.944 634.456 162.195 634.1 161.402C633.744 160.608 633.555 159.805 633.456 159.192C633.406 158.887 633.38 158.636 633.367 158.464C633.36 158.378 633.356 158.312 633.354 158.27C633.353 158.249 633.353 158.234 633.352 158.225L633.352 158.219Z" fill="#E7F6FF" stroke="black" stroke-width="2"/>
<path d="M639.872 157.983C640.766 157.983 641.491 157.259 641.491 156.365C641.491 155.471 640.766 154.746 639.872 154.746C638.979 154.746 638.254 155.471 638.254 156.365C638.254 157.259 638.979 157.983 639.872 157.983Z" fill="#0C0000"/>
<path d="M844.771 317.75C844.337 317.725 843.969 317.463 843.877 317.109L827.782 255.122C827.721 254.885 827.793 254.64 827.979 254.457C828.164 254.275 828.443 254.173 828.736 254.182L882.858 255.81C883.303 255.817 883.691 256.09 883.785 256.453L899.747 318.086C899.808 318.321 899.737 318.565 899.553 318.748C899.369 318.93 899.093 319.033 898.801 319.026L844.811 317.752C844.798 317.751 844.784 317.751 844.771 317.75ZM829.916 255.801L845.595 316.187L897.616 317.415L882.065 257.37L829.916 255.801Z" fill="#161616"/>
<path d="M836.533 331.418C836.093 331.393 835.721 331.125 835.63 330.764L822.116 277.302C822.088 277.192 822.089 277.079 822.116 276.971L827.807 254.781C827.918 254.348 828.432 254.078 828.958 254.182C829.483 254.283 829.818 254.716 829.707 255.148L824.059 277.172L837.37 329.834L890.047 331.291L897.853 318.516C898.113 318.133 898.586 317.828 898.586 317.828C898.586 317.828 899.892 318.235 899.631 318.619L891.464 332.517C891.291 332.772 890.961 332.924 890.604 332.914L836.57 331.42C836.557 331.419 836.545 331.419 836.533 331.418Z" fill="#161616"/>
<path d="M837.45 331.23C837.334 331.215 837.219 331.174 837.115 331.103C836.737 330.849 836.026 329.789 836.272 329.385L844.118 316.036C844.364 315.633 844.705 316.501 845.083 316.755C845.461 317.009 846.341 316.411 846.095 316.815L838.229 330.509C838.051 330.801 837.753 331.269 837.45 331.23Z" fill="#161616"/>
<path d="M846.863 278.866C852.874 279.214 857.982 275.426 858.273 270.405C858.563 265.384 853.926 261.032 847.915 260.684C841.904 260.337 836.796 264.125 836.505 269.146C836.215 274.167 840.852 278.519 846.863 278.866Z" fill="#964B00"/>
<path d="M871.832 280.312C877.843 280.66 882.951 276.871 883.242 271.85C883.532 266.83 878.895 262.478 872.884 262.13C866.873 261.782 861.765 265.57 861.474 270.591C861.184 275.612 865.821 279.964 871.832 280.312Z" fill="#964B00"/>
<path d="M851.785 300.351C857.796 300.699 862.904 296.91 863.195 291.89C863.485 286.869 858.848 282.517 852.837 282.169C846.826 281.821 841.718 285.609 841.427 290.63C841.137 295.651 845.774 300.003 851.785 300.351Z" fill="#964B00"/>
<path d="M876.754 301.796C882.765 302.144 887.873 298.356 888.164 293.335C888.454 288.314 883.817 283.962 877.806 283.614C871.795 283.266 866.686 287.055 866.396 292.075C866.105 297.096 870.743 301.448 876.754 301.796Z" fill="#964B00"/>
<path d="M844.284 256.614C844.284 256.614 833.28 258.146 828.246 247.449C828.246 247.449 844.196 242.491 844.284 256.614Z" fill="#8DC73F"/>
<path d="M850.669 252.985C850.669 252.985 840.706 247.526 851.682 233.258C851.682 233.258 861.388 247.566 850.669 252.985Z" fill="#8DC73F"/>
<path d="M847.329 270.737C846.858 270.71 846.467 270.339 846.427 269.856C846.006 264.736 843.603 251.469 837.594 251.619C837.063 251.627 836.623 251.211 836.61 250.68C836.598 250.149 837.019 249.708 837.55 249.696C846.595 249.496 848.277 268.873 848.345 269.699C848.388 270.228 847.994 270.693 847.465 270.736C847.419 270.739 847.373 270.74 847.329 270.737Z" fill="#084D1F"/>
<path d="M849.636 270.913C849.107 270.882 848.703 270.412 848.732 269.882L850.297 240.612C850.325 240.081 850.773 239.759 851.304 239.79L851.308 239.79C851.837 239.821 852.247 240.177 852.219 240.706L850.65 270.033C850.622 270.564 850.17 270.944 849.64 270.913C849.64 270.913 849.637 270.913 849.636 270.913Z" fill="#084D1F"/>
<path d="M870.026 258.102C870.026 258.102 859.022 259.635 853.989 248.937C853.989 248.937 869.939 243.98 870.026 258.102Z" fill="#8DC73F"/>
<path d="M876.411 254.473C876.411 254.473 866.448 249.014 877.424 234.747C877.424 234.747 887.13 249.055 876.411 254.473Z" fill="#8DC73F"/>
<path d="M873.071 272.226C872.6 272.199 872.209 271.828 872.169 271.345C871.748 266.225 869.333 252.957 863.336 253.108C862.804 253.116 862.365 252.7 862.352 252.169C862.34 251.638 862.761 251.197 863.292 251.185C863.46 251.181 863.626 251.184 863.789 251.193C872.392 251.691 874.02 270.378 874.087 271.188C874.13 271.717 873.736 272.181 873.207 272.225C873.161 272.228 873.116 272.229 873.071 272.226Z" fill="#084D1F"/>
<path d="M875.378 272.401C874.849 272.37 874.446 271.9 874.474 271.371L876.039 242.1C876.067 241.57 876.515 241.247 877.046 241.278L877.05 241.278C877.579 241.309 877.989 241.665 877.961 242.194L876.392 271.521C876.364 272.052 875.913 272.432 875.382 272.401C875.382 272.401 875.379 272.401 875.378 272.401Z" fill="#084D1F"/>
<path d="M847.542 280.313C847.542 280.313 836.538 281.846 831.504 271.148C831.504 271.148 847.454 266.191 847.542 280.313Z" fill="#8DC73F"/>
<path d="M853.927 276.684C853.927 276.684 843.964 271.225 854.94 256.957C854.94 256.957 864.646 271.266 853.927 276.684Z" fill="#8DC73F"/>
<path d="M850.587 294.437C850.116 294.41 849.725 294.039 849.685 293.556C849.264 288.436 846.848 275.172 840.852 275.319C840.322 275.326 839.88 274.911 839.868 274.38C839.856 273.849 840.276 273.408 840.807 273.396C849.86 273.186 851.535 292.573 851.603 293.399C851.646 293.928 851.252 294.392 850.722 294.436C850.677 294.439 850.631 294.44 850.587 294.437Z" fill="#084D1F"/>
<path d="M852.897 294.616C852.369 294.585 851.965 294.115 851.993 293.586L853.559 264.315C853.587 263.785 854.035 263.462 854.566 263.493L854.57 263.493C855.098 263.524 855.509 263.88 855.48 264.409L853.912 293.736C853.883 294.267 853.432 294.647 852.902 294.616C852.902 294.616 852.899 294.616 852.897 294.616Z" fill="#084D1F"/>
<path d="M879.661 278.172C879.661 278.172 869.698 272.714 880.674 258.446C880.674 258.446 890.38 272.754 879.661 278.172Z" fill="#8DC73F"/>
<path d="M878.628 296.1C878.099 296.07 877.696 295.599 877.724 295.07L879.289 265.8C879.317 265.269 879.765 264.947 880.296 264.977L880.3 264.977C880.829 265.008 881.239 265.364 881.211 265.893L879.642 295.221C879.614 295.751 879.163 296.131 878.632 296.1C878.632 296.1 878.629 296.1 878.628 296.1Z" fill="#084D1F"/>
</svg>
