<svg width="475" height="499" viewBox="0 0 475 499" fill="none" xmlns="http://www.w3.org/2000/svg">
<path d="M122.363 189.753C122.363 189.753 134.642 207.13 167.28 220.69C171.424 222.758 215.004 246.023 198.138 285.7C193.968 269.648 182.284 230.917 147.36 227.561C147.36 227.561 185.768 237.62 192.774 286.471C192.774 286.471 159.854 286.754 137.934 253.846C112.89 216.247 122.363 189.753 122.363 189.753Z" fill="#0B2349"/>
<path d="M140.804 303.687C140.804 303.687 151.197 313.73 174.697 318.647C177.725 319.502 209.754 329.51 203.515 358.127C198.702 347.942 186.005 323.572 162.27 325.755C162.27 325.755 189.178 327.604 200.032 359.321C200.032 359.321 178.095 363.68 159.303 344.493C137.832 322.57 140.804 303.687 140.804 303.687Z" fill="#0B2349"/>
<path d="M335.118 215.82C335.118 215.82 316.084 235.551 271.684 246.475C265.979 248.304 205.715 269.455 219.798 323.214C228.189 303.598 250.513 256.579 295.907 259.081C295.907 259.081 244.777 264.432 226.526 325.236C226.526 325.236 268.661 331.98 302.998 294.357C342.23 251.37 335.118 215.82 335.118 215.82Z" fill="#0B2349"/>
<path d="M324.358 26.6181C324.358 26.6181 308.175 63.4741 252.823 100.976C245.925 106.38 180.48 158.47 209.901 235.093C211 248 227.252 142.248 280.133 124.145C280.133 124.145 142.174 293.493 230.16 387.705C230.16 387.705 162.058 300.894 279.752 208.005C346.316 155.47 324.358 26.6181 324.358 26.6181Z" fill="#0B2349"/>
<path fill-rule="evenodd" clip-rule="evenodd" d="M244.058 85.6136C162.658 82.9061 88.0172 139.673 69.5852 223.601C48.8471 318.029 107.115 411.082 199.731 431.44C292.346 451.798 384.237 391.753 404.975 297.324C420.348 227.327 392.308 158.086 339.045 118.65L338.37 149.384C375.196 184.302 393.478 237.799 381.537 292.172C363.549 374.079 284.128 425.417 204.879 407.997C125.63 390.577 75.0355 310.66 93.0237 228.753C107.135 164.5 159.051 119.058 219.033 110.865L244.058 85.6136Z" fill="#0B2349"/>
</svg>
